<?xml version="1.0" standalone="no"?>
<!DOCTYPE svg PUBLIC "-//W3C//DTD SVG 1.1//EN" "http://www.w3.org/Graphics/SVG/1.1/DTD/svg11.dtd" >
<svg xmlns="http://www.w3.org/2000/svg">
<metadata></metadata>
<defs>
<font id="thesans_9e-blackexperexpertIt" horiz-adv-x="1126" >
<font-face units-per-em="2048" ascent="1638" descent="-410" />
<missing-glyph horiz-adv-x="446" />
<glyph horiz-adv-x="0" />
<glyph unicode="&#xd;" horiz-adv-x="0" />
<glyph unicode=" "  horiz-adv-x="446" />
<glyph unicode="&#x09;" horiz-adv-x="446" />
<glyph unicode="&#xa0;" horiz-adv-x="446" />
<glyph unicode="!" horiz-adv-x="975" d="M20 1180l213 141l17 254l227 -115l230 115l14 -256l213 -139l-213 -142l-16 -254l-228 115l-229 -115l-15 256z" />
<glyph unicode="&#x22;" horiz-adv-x="944" d="M215 969q1 60 2.5 132t3.5 119t7 107t12 94q14 71 63 114.5t119 43.5q74 0 127 -49.5t53 -132.5q0 -46 -23.5 -120t-57 -158t-60.5 -150h-246zM664 969q2 170 7 282.5t17 169.5q15 71 63.5 114.5t118.5 43.5q75 0 128 -49.5t53 -132.5q0 -46 -25 -124t-53.5 -148.5 t-63.5 -155.5h-245z" />
<glyph unicode="#" horiz-adv-x="1460" d="M27 317l53 279h252l61 201h-213l56 278h239l90 307h324l-90 -307h178l90 307h324l-91 -307h226l-53 -278h-254l-62 -201h215l-53 -279h-244l-94 -317h-326l95 317h-179l-94 -317h-321l94 317h-223zM655 596h179l61 201h-180z" />
<glyph unicode="$" horiz-adv-x="1509" d="M27 33l96 354q124 -49 328 -76l36 195q-114 7 -201.5 37t-141.5 105t-54 204q0 78 26 153.5t90 148t178 133t273 93.5l48 242h217l-41 -213q60 4 92 4l41 209h217l-41 -213q180 -10 311 -43l-92 -340q-92 34 -283 57l-36 -190q196 -15 294.5 -94t98.5 -226 q0 -93 -31 -178.5t-97.5 -159.5t-177 -133.5t-259.5 -93.5l-62 -317h-217l55 284q-42 -6 -94 -6l-53 -278h-217l55 284q-223 20 -358 58zM494 958q0 -22 17.5 -38.5t51.5 -22.5l33 164q-48 -15 -75 -39.5t-27 -63.5zM664 299q36 0 94 4l41 205q-66 -4 -94 -4zM780 895 q20 1 38 1.5t54 0.5l39 197q-63 0 -92 -2zM981 338q92 32 92 100q0 48 -61 64z" />
<glyph unicode="%" horiz-adv-x="1704" d="M162 987q0 129 59.5 234.5t158.5 165t218 59.5q155 0 227 -75.5t72 -201.5q0 -127 -62 -235t-165.5 -171t-216.5 -63q-87 0 -152.5 29t-102 93.5t-36.5 164.5zM190 141l1182 1307l244 -203l-1184 -1308zM461 1008q0 -56 37 -56q43 0 71.5 56.5t28.5 140.5q0 19 -9 32 t-28 13q-43 0 -71.5 -55t-28.5 -131zM913 225q0 129 59 234t159 165t219 60q155 0 227 -75t72 -201q0 -127 -62.5 -235t-165.5 -171t-217 -63q-87 0 -153 29.5t-102 93t-36 163.5zM1212 246q0 -56 37 -56q29 0 52 26t36 72t13 99q0 19 -9 32t-28 13q-44 0 -72.5 -55 t-28.5 -131z" />
<glyph unicode="&#x26;" horiz-adv-x="2034" d="M104 438q0 132 51 279.5t151.5 280.5t242 212.5t313.5 79.5q117 0 192 -29.5t110.5 -81.5t35.5 -116t-38.5 -119.5t-106.5 -83.5q69 14 176 14q84 0 182 -10l-63 -303q-105 12 -222 12q-83 0 -161 -5t-173 -17t-167.5 -25t-153.5 -32q8 -97 89 -141t247 -44q210 0 375 77 t273.5 206t162 283t53.5 311q0 105 -32 192.5t-98 152.5t-166.5 100.5t-227.5 35.5q-88 0 -117 -6l58 311q32 4 96 4q217 0 378.5 -60.5t263.5 -166t151 -242.5t49 -297q0 -221 -83.5 -440.5t-249 -400.5t-409.5 -288.5t-551 -107.5q-154 0 -274 31t-199.5 91.5t-118.5 146 t-39 196.5zM557 788q176 38 233.5 70t57.5 76q0 17 -15.5 29t-41.5 12q-56 0 -121 -53t-113 -134z" />
<glyph unicode="'" horiz-adv-x="496" d="M215 969q5 347 25 452q14 71 63 114.5t119 43.5q74 0 127 -49.5t53 -132.5q0 -46 -23.5 -120t-57 -158t-60.5 -150h-246z" />
<glyph unicode="(" horiz-adv-x="623" d="M47 264q0 209 52 430t161 445.5t272 429.5h355q-233 -303 -355 -655t-124 -629q0 -180 23 -360t73 -320h-332q-58 142 -91.5 305.5t-33.5 353.5z" />
<glyph unicode=")" horiz-adv-x="623" d="M-209 -395q120 155 211 324.5t153 346.5t91.5 345.5t29.5 322.5q0 358 -98 625h342q56 -144 86.5 -304.5t30.5 -328.5q0 -191 -35 -370t-98 -347t-153 -324.5t-195 -289.5h-365z" />
<glyph unicode="*" horiz-adv-x="1192" d="M59 238l336 282l-225 283l254 201l219 -273l324 273l186 -220l-330 -278l228 -285l-254 -203l-224 279l-329 -279z" />
<glyph unicode="+" horiz-adv-x="1372" d="M133 373l60 311h360l72 369h354l-72 -369h361l-62 -311h-360l-72 -373h-352l72 373h-361z" />
<glyph unicode="," horiz-adv-x="602" d="M-61 -258q90 74 131 128.5t41 102.5q0 43 -37 99q-33 46 -33 112q0 57 27.5 109t78.5 84.5t117 32.5q47 0 86.5 -17.5t69.5 -49.5t47.5 -78t17.5 -103q0 -80 -41.5 -174t-135.5 -197t-238 -201z" />
<glyph unicode="-" d="M154 428l63 328h811l-63 -328h-811z" />
<glyph unicode="." horiz-adv-x="602" d="M35 186q0 65 32.5 118.5t86 84.5t114.5 31q60 0 109.5 -30t78.5 -80t29 -107q0 -65 -32.5 -118.5t-86 -84.5t-114.5 -31q-91 0 -154 65.5t-63 151.5z" />
<glyph unicode="/" horiz-adv-x="610" d="M-268 0l792 1382h371l-791 -1382h-372z" />
<glyph unicode="0" d="M57 397q0 126 33 297q44 226 141 387.5t233.5 243.5t295.5 82q204 0 302.5 -105t98.5 -323q0 -125 -31 -283q-45 -229 -146 -392t-237.5 -247t-285.5 -84q-97 0 -169.5 21.5t-125 71t-81 131.5t-28.5 200zM451 416q0 -71 19.5 -95t61.5 -24q65 0 110 84t89 311 q35 181 35 277q0 69 -19.5 95t-60.5 26q-62 0 -108.5 -84.5t-90.5 -307.5q-36 -184 -36 -282z" />
<glyph unicode="1" d="M0 0l63 336h320l127 657l-264 -92v344l461 137h262l-203 -1046h276l-65 -336h-977z" />
<glyph unicode="2" d="M0 0l61 317l72 62q198 168 311 273.5t165.5 179.5t52.5 135q0 38 -32.5 64t-97.5 26q-134 0 -276 -66v340q85 34 194 55t191 21q125 0 213 -28.5t140.5 -77t77 -112t24.5 -136.5q0 -103 -37 -192.5t-127.5 -193t-257.5 -249.5l-66 -58v-6q152 11 396 11l-70 -365h-934z " />
<glyph unicode="3" d="M18 4l91 324q81 -35 219 -35q130 0 209 48t79 114q0 96 -184 96q-140 0 -246 -14l56 290h80q157 0 267.5 45.5t110.5 133.5q0 81 -151 81q-139 0 -277 -57v316q82 27 191.5 44t193.5 17q158 0 259 -39.5t147.5 -112t46.5 -172.5q0 -65 -28.5 -131t-87.5 -119t-148 -85 l-4 -7q59 -13 99.5 -47.5t61.5 -86.5t21 -113q0 -84 -38 -171.5t-125.5 -168.5t-230.5 -130t-345 -49q-87 0 -157.5 9t-109.5 20z" />
<glyph unicode="4" d="M37 301l24 322l549 759h512l-145 -747h133l-66 -334h-133l-59 -301h-358l59 301h-516zM434 633q45 2 191 2l75 369h-2z" />
<glyph unicode="5" d="M57 -2l66 334q115 -33 229 -33q117 0 190.5 47.5t73.5 128.5q0 121 -231 121q-123 0 -211 -16l156 802h827l-67 -354l-472 4l-28 -141h24q150 0 245.5 -46t137 -123t41.5 -173q0 -130 -57 -235.5t-159.5 -182.5t-230 -116.5t-265.5 -39.5q-160 0 -269 23z" />
<glyph unicode="6" d="M41 416q0 185 60 362t175 318t280.5 223t371.5 82q127 0 215 -15l-64 -329q-50 13 -94.5 17.5t-99.5 4.5q-214 0 -334 -153q-28 -37 -49 -80h2q97 57 211 57q178 0 275 -98.5t97 -265.5q0 -111 -45 -212.5t-129 -182.5t-192 -127t-229 -46q-212 0 -331.5 115.5 t-119.5 329.5zM420 408q0 -52 29 -82.5t83 -30.5q74 0 123.5 56.5t49.5 140.5q0 50 -28.5 76t-80.5 26q-49 0 -89.5 -25t-63.5 -66.5t-23 -94.5z" />
<glyph unicode="7" d="M133 0q79 177 185.5 379.5t196.5 358t173 284.5q-252 -6 -487 -6l71 366h938l-61 -321q-78 -112 -163.5 -255t-147.5 -259t-131 -260t-129 -287h-445z" />
<glyph unicode="8" d="M31 295q0 77 24 147t82.5 136t157.5 127q-115 97 -115 233q0 144 76.5 252.5t208.5 166.5t289 58q146 0 239 -43.5t135.5 -114.5t42.5 -153q0 -123 -62 -216.5t-187 -168.5q149 -112 149 -277q0 -136 -79 -243.5t-218.5 -168.5t-308.5 -61q-221 0 -327.5 91.5 t-106.5 234.5zM418 362q0 -86 106 -86q77 0 122.5 39t45.5 97q0 65 -121 129q-153 -80 -153 -179zM553 985q0 -48 86 -104q156 81 156 168q0 25 -22 45t-75 20q-72 0 -108.5 -35.5t-36.5 -93.5z" />
<glyph unicode="9" d="M39 -6l63 334q38 -13 99 -22t112 -9q113 0 210.5 50.5t135.5 123.5q5 8 21 45h-2q-83 -51 -209 -51q-162 0 -258 95t-96 261q0 147 72.5 283t209.5 220.5t320 84.5q136 0 236 -50t154 -152.5t54 -256.5q0 -166 -49.5 -334.5t-160 -315t-288 -235t-421.5 -88.5 q-111 0 -203 17zM492 895q0 -107 112 -107q59 0 114.5 50t55.5 139q0 108 -108 108q-79 0 -126.5 -56.5t-47.5 -133.5z" />
<glyph unicode=":" horiz-adv-x="602" d="M31 182q0 99 71 168.5t164 69.5q61 0 110.5 -30t79 -80.5t29.5 -102.5q0 -66 -32 -120.5t-86 -86t-115 -31.5t-111 30t-80 80t-30 103zM135 733q0 67 33 121t87 85.5t116 31.5q61 0 110.5 -30t79 -80.5t29.5 -102.5q0 -66 -32.5 -120.5t-86.5 -86t-115 -31.5t-111 30 t-80 80t-30 103z" />
<glyph unicode=";" horiz-adv-x="602" d="M-63 -258q90 74 131 128.5t41 102.5q0 43 -37 99q-33 46 -33 112q0 57 27.5 109t78.5 84.5t117 32.5q47 0 86.5 -17.5t69.5 -49.5t47.5 -78t17.5 -103q0 -80 -41.5 -174t-135.5 -197t-238 -201zM135 733q0 67 33 121t87 85.5t116 31.5q61 0 110.5 -30t79 -80.5 t29.5 -102.5q0 -66 -32.5 -120.5t-86.5 -86t-115 -31.5t-111 30t-80 80t-30 103z" />
<glyph unicode="&#x3c;" horiz-adv-x="1143" d="M66 530l743 615l225 -268l-497 -385l354 -394l-273 -225z" />
<glyph unicode="=" horiz-adv-x="1208" d="M88 141l57 297h912l-58 -297h-911zM174 592l59 297h912l-58 -297h-913z" />
<glyph unicode="&#x3e;" horiz-adv-x="1143" d="M16 143l498 385l-354 394l272 225l553 -658l-743 -614z" />
<glyph unicode="?" horiz-adv-x="1786" d="M6 625l412 274l33 494l442 -219l444 219l31 -496l412 -272l-412 -275l-33 -493l-442 219l-444 -219l-31 493z" />
<glyph unicode="@" horiz-adv-x="1595" d="M223 344l332 614h260l92 -614h-237l-6 78h-185l-41 -78h-215zM348 119l197 196q67 -67 150.5 -101t174.5 -34q93 0 176 34t150 101l197 -196q-107 -107 -243.5 -161t-279.5 -54q-142 0 -278.5 54.5t-243.5 160.5zM360 1188q70 69 155.5 117.5t179 73t188.5 24.5 q73 0 141.5 -13t137 -41t131.5 -69t112 -92l-197 -197q-135 135 -325 135q-90 0 -174.5 -34t-151.5 -101zM557 575h88l-10 74q-4 23 -4 76q-6 -16 -16.5 -37l-18.5 -37zM967 770l34 188h494l-37 -188h-139l-84 -426h-211l82 426h-139z" />
<glyph unicode="A" horiz-adv-x="942" d="M59 885q0 136 72 255.5t194.5 190t264.5 70.5q134 0 219.5 -45t124.5 -118.5t39 -162.5q0 -147 -69.5 -272t-192.5 -196.5t-275 -71.5q-160 0 -268.5 82.5t-108.5 267.5zM408 864q0 -49 17.5 -65.5t55.5 -16.5q45 0 77.5 47.5t49.5 114.5t17 123q0 52 -14.5 74t-47.5 22 q-81 0 -118 -98.5t-37 -200.5z" />
<glyph unicode="B" horiz-adv-x="645" d="M96 1004v292l258 86h312l-162 -829h-359l99 512z" />
<glyph unicode="C" horiz-adv-x="737" d="M10 553l53 274l97 70q104 74 139 108t35 60q0 29 -45 29q-52 0 -131 -29v291q149 45 282 45q151 0 222 -61t71 -158q0 -87 -42.5 -157t-151.5 -153l-33 -24q51 4 180 4l-57 -299h-619z" />
<glyph unicode="D" horiz-adv-x="696" d="M-14 553l71 231q55 -18 133 -18q43 0 72 13.5t29 35.5q0 47 -103 47q-50 0 -104 -10l41 207q81 0 130 12t70 29.5t21 34.5q0 34 -55 34q-68 0 -156 -30v227q136 35 277 35q299 0 299 -201q0 -125 -152 -209q42 -15 67 -55.5t25 -95.5q0 -63 -27.5 -117.5t-85.5 -97.5 t-147.5 -68t-206.5 -25q-43 0 -99.5 6.5t-98.5 14.5z" />
<glyph unicode="E" horiz-adv-x="901" d="M14 655l49 250l320 477h508l-90 -458h92l-51 -269h-92l-21 -102h-332l21 102h-404zM354 920h109l45 235z" />
<glyph unicode="F" horiz-adv-x="737" d="M37 549l47 237q71 -22 149 -22q53 0 83 18.5t30 44.5q0 47 -102 47q-66 0 -135 -14l100 522h557l-47 -237h-238l-10 -58h10q230 -5 230 -200q0 -97 -59.5 -178t-170.5 -127.5t-254 -46.5q-101 0 -190 14z" />
<glyph unicode="G" horiz-adv-x="825" d="M55 831q0 171 82 301t214.5 198.5t279.5 68.5q112 0 174 -17l-47 -239q-74 24 -152 24q-107 0 -164 -45q-21 -18 -36 -47q53 25 129 25q80 0 136.5 -26.5t86.5 -74t30 -112.5q0 -111 -57.5 -190.5t-153.5 -120.5t-212 -41q-145 0 -227.5 77t-82.5 219zM344 805 q0 -62 59 -62q39 0 67 28t28 75q0 53 -60 53q-39 0 -66.5 -26t-27.5 -68z" />
<glyph unicode="H" horiz-adv-x="664" d="M61 553q31 85 59 150.5t58 129t75 148t79 137.5q-34 -4 -260 -4l53 268h614l-41 -211q-80 -141 -147 -291.5t-125 -326.5h-365z" />
<glyph unicode="I" horiz-adv-x="860" d="M47 737q0 72 28 123t103 98q-51 51 -51 123q0 92 53 166.5t150.5 117t226.5 42.5q107 0 182.5 -22.5t115.5 -67.5t40 -111q0 -133 -135 -211q80 -58 80 -149q0 -79 -45 -152t-144 -119.5t-252 -46.5q-120 0 -199 23.5t-116 70t-37 115.5zM358 774q0 -47 72 -47 q40 0 65 17t25 44q0 36 -90 64q-32 -17 -52 -34.5t-20 -43.5zM438 1159q0 -38 74 -61q72 37 72 78q0 16 -14.5 28.5t-47.5 12.5q-35 0 -59.5 -16t-24.5 -42z" />
<glyph unicode="J" horiz-adv-x="825" d="M51 551l47 242q46 -16 86 -21.5t76 -5.5q122 0 174 49q20 16 29 35q-50 -23 -129 -23q-128 0 -189 59.5t-61 153.5t46.5 177t142 133.5t231.5 50.5q113 0 184.5 -39.5t104 -108t32.5 -159.5q0 -113 -37.5 -213.5t-114.5 -179.5t-189 -122.5t-255 -43.5q-95 0 -178 16z M375 1092q0 -54 61 -54q42 0 66 27t24 61q0 58 -57 58q-42 0 -68 -25t-26 -67z" />
<glyph unicode="K" horiz-adv-x="475" d="M-49 340q174 124 174 213q0 38 -27 74q-30 39 -30 92q0 71 51 124.5t135 53.5q85 0 140 -58t55 -151q0 -55 -21.5 -113.5t-69 -122.5t-122 -127t-177.5 -120z" />
<glyph unicode="L" horiz-adv-x="563" d="M37 780l45 232h457l-45 -232h-457z" />
<glyph unicode="M" horiz-adv-x="547" d="M45 711q0 49 27.5 93t75.5 70.5t102 26.5q60 0 104 -26.5t67 -68.5t23 -85q0 -49 -26.5 -93.5t-73.5 -72t-102 -27.5q-56 0 -102.5 25.5t-70.5 67t-24 90.5z" />
<glyph unicode="N" horiz-adv-x="557" d="M29 682q0 98 13 191t45.5 195.5t89.5 210.5t142 216h330q-143 -186 -218 -403t-75 -435q0 -184 60 -342h-320q-67 167 -67 367z" />
<glyph unicode="O" horiz-adv-x="557" d="M-80 315q91 119 159 259.5t105 290.5t37 292q0 184 -59 338h313q33 -79 51.5 -173.5t18.5 -197.5q0 -445 -289 -809h-336z" />
<glyph unicode="P" horiz-adv-x="793" d="M35 553l47 250q100 -33 186 -33q78 0 78 39q0 27 -43 46.5t-95 43t-88 70t-36 125.5q0 72 36.5 133.5t95.5 102t126 54.5l27 144h297l-27 -131q63 -4 119 -19l-47 -243q-110 32 -168 32q-68 0 -68 -30q0 -22 33 -38t92.5 -44t94 -74t34.5 -125q0 -69 -33.5 -132 t-92.5 -109.5t-132 -65.5l-35 -180h-301l33 166q-39 4 -133 18z" />
<glyph unicode="Q" horiz-adv-x="655" d="M55 905q0 82 31.5 159t89.5 131.5t139 78.5l21 108h276l-20 -100q41 -3 88 -18l-66 -238q-46 27 -106 27q-48 0 -75 -24t-27 -66q0 -62 69 -62q50 0 119 23l-19 -242q-43 -10 -104 -14l-18 -115h-279l27 129q-66 22 -106 79t-40 144z" />
<glyph unicode="R" horiz-adv-x="702" d="M-14 553l41 213q74 23 94 41t24 70h-90l45 227h66q4 73 10 100q25 110 113.5 164.5t224.5 54.5q85 0 193 -18l-45 -234q-43 21 -91 21q-52 0 -57 -39q-4 -14 -4 -49h125l-43 -227h-105q-7 -43 -43 -84q50 4 68 4h123l-47 -244h-602z" />
<glyph unicode="S" horiz-adv-x="909" d="M8 633l33 170h213l10 53h-211l31 168h139l-114 358h325l41 -135q21 -79 25 -112q30 53 80 122l90 125h331l-256 -358h140l-33 -168h-213l-10 -53h213l-35 -170h-213l-14 -80h-373l14 80h-213z" />
<glyph unicode="T" horiz-adv-x="647" d="M-94 313l69 265q32 -15 56 -15q32 0 49.5 38t44.5 181l16 84h-78l50 246h75l7 37q28 172 127.5 253t283.5 81q66 0 119 -13l-66 -245q-24 12 -65 12q-46 0 -59 -63l-13 -62h107l-47 -246h-107l-20 -110q-25 -133 -67 -223.5t-98 -141t-125 -70.5t-151 -20q-52 0 -108 12z " />
<glyph unicode="U" horiz-adv-x="737" d="M43 809l45 231h629l-45 -231h-629z" />
<glyph unicode="V" horiz-adv-x="1876" d="M96 1004v292l258 86h312l-162 -829h-359l99 512zM168 -145l1180 1757l260 -178l-1182 -1760zM1133 0l53 274l96 70q104 74 139 108t35 60q0 29 -45 29q-52 0 -131 -29v291q149 45 283 45q151 0 221.5 -61t70.5 -158q0 -87 -42.5 -157t-151.5 -153l-33 -24q51 4 180 4 l-57 -299h-618z" />
<glyph unicode="W" horiz-adv-x="1972" d="M96 1004v292l258 86h312l-162 -829h-359l99 512zM168 -145l1180 1757l260 -178l-1182 -1760zM1061 102l49 250l320 477h507l-90 -458h92l-51 -269h-92l-20 -102h-332l20 102h-403zM1401 367h108l45 235z" />
<glyph unicode="X" horiz-adv-x="1989" d="M-14 553l71 231q55 -18 133 -18q43 0 72 13.5t29 35.5q0 47 -103 47q-50 0 -104 -10l41 207q81 0 130 12t70 29.5t21 34.5q0 34 -55 34q-68 0 -156 -30v227q136 35 277 35q299 0 299 -201q0 -125 -152 -209q42 -15 67 -55.5t25 -95.5q0 -63 -27.5 -117.5t-85.5 -97.5 t-147.5 -68t-206.5 -25q-43 0 -99.5 6.5t-98.5 14.5zM195 -145l1179 1757l260 -178l-1181 -1760zM1092 102l49 250l319 477h508l-90 -458h92l-51 -269h-92l-21 -102h-331l20 102h-403zM1432 367h108l45 235z" />
<glyph unicode="Y" horiz-adv-x="1720" d="M20 -16l961 960l-682 -26v333h1221v-1220h-334l28 682l-962 -961z" />
<glyph unicode="Z" horiz-adv-x="1720" d="M201 -68v1221h334l-27 -682l960 961l232 -232l-961 -962l682 28v-334h-1220z" />
<glyph unicode="[" horiz-adv-x="1720" d="M20 1200l232 232l962 -961l-28 682h334v-1221h-1221v334l682 -26z" />
<glyph unicode="\" horiz-adv-x="1720" d="M201 31v1220h1220v-333l-682 28l961 -962l-232 -232l-960 961l27 -682h-334z" />
<glyph unicode="]" horiz-adv-x="1896" d="M78 530q0 96 34 201t107 196.5t188.5 147t268.5 55.5q299 0 299 -243q0 -72 -64 -148q78 19 247 28.5t243 30t74 87.5q0 59 -21 110l332 70q43 -81 43 -162q0 -183 -105.5 -270.5t-287.5 -122.5q6 -37 6 -68q0 -152 -93.5 -258.5t-256 -159.5t-369.5 -53 q-154 0 -271.5 29.5t-202 96t-128 174.5t-43.5 259zM416 637q127 37 177 71.5t50 84.5q0 53 -49 53q-65 0 -112.5 -56.5t-65.5 -152.5zM461 389q69 -117 311 -117q146 0 235 41.5t89 114.5q0 21 -4 45q-212 -12 -365.5 -30t-265.5 -54z" />
<glyph unicode="^" horiz-adv-x="1073" d="M139 799l436 583h275l225 -579l-274 -131l-135 452l-304 -452z" />
<glyph unicode="_" horiz-adv-x="1024" d="M0 -213h1024v-303h-1024v303z" />
<glyph unicode="`" horiz-adv-x="762" d="M238 1298l137 261l452 -224l-116 -219z" />
<glyph unicode="a" horiz-adv-x="942" d="M35 332q0 136 71.5 255t194 190t264.5 71q135 0 220.5 -45t124 -118.5t38.5 -162.5q0 -147 -69.5 -272t-192.5 -196.5t-274 -71.5q-102 0 -187.5 34t-137.5 112t-52 204zM383 311q0 -49 18 -65.5t56 -16.5q44 0 76.5 47.5t49.5 114.5t17 123q0 54 -14 75t-47 21 q-81 0 -118.5 -98t-37.5 -201z" />
<glyph unicode="b" horiz-adv-x="645" d="M72 451v292l258 86h311l-162 -829h-358l98 512z" />
<glyph unicode="c" horiz-adv-x="737" d="M-14 0l53 274l96 70q104 74 139 108t35 60q0 29 -45 29q-52 0 -131 -29v291q149 45 283 45q151 0 222 -61t71 -158q0 -87 -42 -156.5t-153 -153.5l-33 -24q51 4 181 4l-58 -299h-618z" />
<glyph unicode="d" horiz-adv-x="696" d="M-39 0l72 231q55 -18 133 -18q43 0 71.5 13.5t28.5 35.5q0 47 -102 47q-51 0 -105 -10l41 207q115 0 168.5 24.5t53.5 51.5q0 34 -56 34q-67 0 -155 -30v227q53 15 128 25t148 10q299 0 299 -201q0 -125 -151 -209q42 -15 67 -55.5t25 -95.5q0 -84 -51.5 -154 t-157 -111.5t-258.5 -41.5q-97 0 -199 20z" />
<glyph unicode="e" horiz-adv-x="901" d="M-10 102l49 250l319 477h508l-90 -458h92l-51 -269h-92l-20 -102h-332l20 102h-403zM330 367h108l45 235z" />
<glyph unicode="f" horiz-adv-x="737" d="M12 -4l47 237q71 -22 150 -22q53 0 83 18.5t30 44.5q0 48 -103 48q-61 0 -135 -15l100 522h557l-47 -237h-237l-11 -57h11q87 -3 136 -27.5t71 -68t22 -105.5q0 -97 -59.5 -178t-169.5 -127.5t-254 -46.5q-102 0 -191 14z" />
<glyph unicode="g" horiz-adv-x="825" d="M31 279q0 170 81.5 300t214 198.5t279.5 68.5q114 0 174 -17l-47 -239q-74 24 -151 24q-107 0 -164 -45q-21 -17 -37 -47q54 25 129 25q121 0 187.5 -58t66.5 -155q0 -111 -58 -190.5t-154 -120.5t-212 -41q-70 0 -128 19.5t-99 58t-61.5 93t-20.5 126.5zM319 252 q0 -62 60 -62q38 0 66 28t28 75q0 53 -59 53q-38 0 -66.5 -26.5t-28.5 -67.5z" />
<glyph unicode="h" horiz-adv-x="664" d="M37 0q123 331 270 565q-32 -4 -260 -4l53 268h615l-41 -211q-164 -286 -273 -618h-364z" />
<glyph unicode="i" horiz-adv-x="860" d="M23 184q0 72 27.5 122.5t103.5 99.5q-52 50 -52 122q0 92 53 166.5t150.5 117t226.5 42.5q107 0 182.5 -22.5t115.5 -67.5t40 -111q0 -134 -135 -211q80 -58 80 -149q0 -79 -45 -152t-143.5 -119.5t-251.5 -46.5q-122 0 -200 23.5t-115 70t-37 115.5zM334 221 q0 -47 72 -47q40 0 65 17t25 45q0 35 -90 63q-36 -19 -54 -35.5t-18 -42.5zM414 606q0 -38 73 -61q72 36 72 78q0 41 -61 41q-35 0 -59.5 -16t-24.5 -42z" />
<glyph unicode="j" horiz-adv-x="825" d="M27 -2l47 242q72 -27 162 -27q122 0 174 49q18 15 28 35q-50 -23 -129 -23q-128 0 -189 59.5t-61 153.5t46.5 177t142.5 133.5t231 50.5q167 0 244.5 -83.5t77.5 -223.5q0 -113 -37.5 -212.5t-114 -179t-189 -123.5t-255.5 -44q-60 0 -94 3t-84 13zM350 539q0 -54 62 -54 q41 0 65.5 26.5t24.5 61.5q0 58 -58 58q-42 0 -68 -25t-26 -67z" />
<glyph unicode="k" horiz-adv-x="475" d="M-74 -213q174 124 174 213q0 38 -26 74q-31 38 -31 92q0 70 51.5 124t134.5 54q85 0 140 -58t55 -151q0 -70 -39 -152.5t-126.5 -168t-223.5 -162.5z" />
<glyph unicode="l" horiz-adv-x="563" d="M12 227l45 232h457l-45 -232h-457z" />
<glyph unicode="m" horiz-adv-x="547" d="M20 158q0 49 28.5 93t76 70.5t100.5 26.5q60 0 104 -26t67.5 -68t23.5 -86q0 -49 -27 -93.5t-74 -72t-102 -27.5q-56 0 -102.5 25.5t-70.5 67t-24 90.5z" />
<glyph unicode="n" horiz-adv-x="557" d="M4 129q0 202 63.5 403.5t227.5 409.5h330q-73 -96 -126.5 -194.5t-91 -206.5t-56.5 -218t-19 -219q0 -186 59 -342h-319q-68 169 -68 367z" />
<glyph unicode="o" horiz-adv-x="557" d="M-104 -238q91 119 159 259.5t105 290.5t37 292q0 181 -60 338h314q69 -170 69 -371q0 -445 -289 -809h-335z" />
<glyph unicode="p" horiz-adv-x="793" d="M10 0l47 250q100 -33 187 -33q78 0 78 39q0 27 -42.5 46t-95.5 43t-89 70.5t-36 125.5q0 72 36.5 133.5t95.5 102t126 54.5l27 144h297l-27 -131q63 -4 119 -19l-47 -243q-108 32 -168 32q-67 0 -67 -30q0 -22 33 -38t92.5 -44t94 -74t34.5 -125q0 -103 -73.5 -190 t-185.5 -117l-34 -180h-301l32 166q-39 4 -133 18z" />
<glyph unicode="q" horiz-adv-x="655" d="M31 352q0 82 31 158.5t90 131.5t139 79l20 108h277l-21 -100q43 -3 88 -18l-65 -238q-48 27 -107 27q-48 0 -75 -24t-27 -66q0 -62 70 -62q49 0 118 23l-18 -242q-44 -10 -105 -14l-18 -115h-278l26 129q-66 22 -105.5 78t-39.5 145z" />
<glyph unicode="r" horiz-adv-x="702" d="M-39 0l41 213q74 23 94.5 41.5t24.5 69.5h-90l45 227h65q4 73 11 100q23 110 112 164.5t225 54.5q87 0 193 -18l-45 -234q-43 21 -90 21q-51 0 -58 -39q-4 -14 -4 -49h125l-43 -227h-104q-6 -40 -43 -84q48 4 67 4h123l-47 -244h-602z" />
<glyph unicode="s" horiz-adv-x="909" d="M-16 80l32 170h213l11 53h-211l30 168h140l-115 358h326l41 -135q20 -73 24 -112q35 60 80 123l90 124h332l-256 -358h139l-33 -168h-213l-10 -53h213l-35 -170h-213l-14 -80h-373l15 80h-213z" />
<glyph unicode="t" horiz-adv-x="647" d="M-119 -240l70 265q30 -15 55 -15q32 0 49.5 38t44.5 181l17 84h-78l49 246h76l6 37q30 173 129 253.5t283 80.5q64 0 118 -12l-65 -246q-25 12 -66 12q-46 0 -59 -63l-12 -62h106l-47 -246h-106l-21 -110q-48 -259 -157 -357t-283 -98q-53 0 -109 12z" />
<glyph unicode="u" horiz-adv-x="737" d="M18 256l45 231h629l-45 -231h-629z" />
<glyph unicode="v" horiz-adv-x="766" d="M29 436h207v1065h294v-1065h207l-354 -467z" />
<glyph unicode="w" d="M35 473l190 191l191 -207v1044h295v-1046l192 207l189 -189l-529 -528z" />
<glyph unicode="x" horiz-adv-x="2365" d="M104 520q0 171 62.5 319.5t167.5 255.5t234.5 165.5t260.5 58.5q98 0 162.5 -26t93.5 -70.5t29 -96.5q0 -59 -35 -116q100 32 223.5 57.5t256.5 42.5q-9 166 -31 272h397q17 -131 23 -247q222 0 358 -13l-63 -317q-172 13 -301 16q-22 -214 -108 -375.5t-229 -266.5 t-340 -156.5t-446 -51.5q-185 0 -322 40t-223.5 113t-128 172.5t-41.5 223.5zM502 752q153 77 218.5 127t65.5 92q0 39 -57 39q-67 0 -131 -74t-96 -184zM520 436q43 -62 133 -94.5t230 -32.5q153 0 268 26.5t199 85t135 153t67 227.5q-120 -12 -243.5 -39.5t-250 -70 t-257 -104t-281.5 -151.5z" />
<glyph unicode="y" horiz-adv-x="1024" d="M238 186q0 65 32.5 118.5t86 84.5t114.5 31q60 0 109.5 -30t78.5 -80t29 -107q0 -65 -32.5 -118.5t-86 -84.5t-114.5 -31q-91 0 -154 65.5t-63 151.5z" />
<glyph unicode="z" horiz-adv-x="1024" d="M-14 186q0 65 32.5 118.5t86 84.5t114.5 31q60 0 109.5 -30t78.5 -80t29 -107q0 -65 -32.5 -118.5t-86 -84.5t-114.5 -31q-91 0 -154 65.5t-63 151.5zM492 186q0 65 32.5 118.5t86 84.5t114.5 31q60 0 109.5 -30t78.5 -80t29 -107q0 -65 -32.5 -118.5t-86 -84.5 t-114.5 -31q-91 0 -154 65.5t-63 151.5z" />
<glyph unicode="{" horiz-adv-x="803" d="M96 664l54 274q58 2 103 19.5t77.5 65t48.5 132.5l6 35q38 211 166 314.5t358 103.5h54l-60 -301q-90 0 -124 -25.5t-52 -105.5l-8 -39q-64 -309 -250 -334v-4q131 -19 131 -209q0 -64 -18 -160l-64 -326q-18 -88 -18 -137q0 -41 13 -63t40 -29.5t72 -7.5l-60 -303h-53 q-126 0 -206 33t-119.5 104t-39.5 184q0 74 23 199l68 346q10 55 10 86q0 79 -40 112t-112 36z" />
<glyph unicode="|" horiz-adv-x="557" d="M-59 -512l397 2048h295l-397 -2048h-295z" />
<glyph unicode="}" horiz-adv-x="803" d="M-104 -436l59 303q64 0 98 17t56.5 65t44.5 155l63 326q37 187 104 272t152 97v4q-135 18 -135 194q0 61 18 148l6 29q7 31 7 55q0 44 -30 61t-103 17l57 301h53q194 0 284.5 -72.5t90.5 -220.5q0 -55 -12 -123l-11 -57q-6 -37 -6 -64q0 -71 40 -100.5t114 -32.5 l-53 -274q-90 -3 -148.5 -54.5t-83.5 -179.5l-63 -328q-38 -195 -107.5 -313t-177 -171.5t-264.5 -53.5h-53z" />
<glyph unicode="~" horiz-adv-x="1153" d="M80 649q157 127 350 127q55 0 110 -13.5t95.5 -29.5t89.5 -32.5t84 -16.5q124 0 221 80l86 -268q-142 -144 -356 -144q-50 0 -94.5 10.5t-109 33t-115.5 35.5t-91 13q-107 0 -186 -69z" />
<glyph unicode="&#xa1;" horiz-adv-x="913" d="M0 0l63 326h183l78 403h-183l64 324h741l-63 -324h-183l-77 -403h182l-64 -326h-741z" />
<glyph unicode="&#xa2;" horiz-adv-x="911" d="M80 397q0 70 14 140q37 192 154.5 331t288.5 183l36 192h273l-35 -172q70 -7 125 -24l-86 -316q-70 39 -145 39q-55 0 -100.5 -24t-78 -72t-45.5 -115q-6 -30 -6 -57q0 -131 143 -131q49 0 90 8.5t89 26.5l-47 -322q-74 -21 -136 -27l-39 -196h-270l39 198 q-133 23 -198.5 112t-65.5 226z" />
<glyph unicode="&#xa3;" horiz-adv-x="967" d="M6 0l55 291q92 26 135.5 63t58 88t21.5 150h-143l55 287h115q3 42 6 89.5t8 73.5q40 207 166 307.5t340 100.5q99 0 176 -14l-59 -308q-67 15 -119 15q-54 0 -85 -26t-46 -89q-1 -8 -7 -66.5t-9 -82.5h205l-56 -287h-176q-21 -187 -117 -273q72 5 117 5h203l-62 -324 h-782z" />
<glyph unicode="&#xa4;" horiz-adv-x="6144" d="M66 743q0 93 18.5 176.5t50.5 145.5l375 -92q-32 -53 -49 -127t-17 -141q0 -156 114.5 -246t336.5 -90q336 0 655 103.5t871 328.5t978 342t890 117q549 0 1032 -168q245 -86 417.5 -207.5t257.5 -266.5t85 -305q0 -105 -42 -198t-112.5 -162t-161.5 -119l-229 256 q76 35 125 106.5t49 155.5q0 91 -54 169.5t-159 125.5t-250 47q-193 0 -540.5 -159.5t-794 -366.5t-947 -344t-1067.5 -137q-306 0 -573.5 40t-480 119t-365.5 193q-111 85 -189 169t-128 171.5t-73 179t-23 184.5zM893 123q57 -21 144 -41t208.5 -36t274 -25t358.5 -9 q438 0 852 119.5t971 366.5t758.5 326t422.5 79q-149 19 -294.5 30t-278.5 11q-379 0 -747.5 -110t-884.5 -324t-831 -316t-638 -102q-160 0 -315 31z" />
<glyph unicode="&#xa5;" horiz-adv-x="1235" d="M94 145l45 232h283l16 84h-284l43 227h196l-211 694h396l75 -262q32 -112 45 -211h4q49 99 150 242l164 231h401l-479 -694h195l-43 -227h-283l-16 -84h282l-43 -232h-282l-29 -145h-369l27 145h-283z" />
<glyph unicode="&#xa7;" horiz-adv-x="1827" d="M-25 1446l222 221l352 -350l2 2q177 123 403 123q157 0 294.5 -57.5t240 -161t159 -241t56.5 -290.5q0 -228 -123 -403l-2 -2l350 -350l-221 -222l-350 351l-2 -3q-85 -57 -188.5 -88.5t-213.5 -31.5q-206 0 -377.5 99t-271.5 271.5t-100 378.5q0 110 31.5 214.5 t89.5 187.5l2 2zM588 692q0 -100 49.5 -184t133.5 -133t183 -49q56 0 121 20l2 2l-467 467l-2 -2q-20 -53 -20 -121zM831 1036l467 -467l2 2q21 52 21 121q0 76 -28 142.5t-79 117.5t-117.5 79t-142.5 28q-59 0 -120 -21z" />
<glyph unicode="&#xa8;" horiz-adv-x="891" d="M156 881q0 164 70.5 282.5t183 178t235.5 59.5q175 0 245.5 -61t70.5 -150q0 -148 -137 -221t-367 -78v-19q0 -30 25.5 -44.5t90.5 -14.5q132 0 258 47v-213q-87 -27 -178 -40t-172 -13q-176 0 -250.5 73.5t-74.5 213.5zM481 1065q185 3 185 92q0 39 -50 39 q-52 0 -84.5 -38t-50.5 -93z" />
<glyph unicode="&#xa9;" horiz-adv-x="975" d="M160 856q0 146 61.5 271.5t186 199.5t303.5 74q198 0 354 -27q-113 -556 -143 -762h-297q17 70 51 146h-4q-119 -166 -297 -166q-215 0 -215 264zM473 903q0 -35 8 -50t27 -15q32 0 73 48t78 119.5t52 133.5l8 32q-30 9 -60 9q-78 0 -132 -91t-54 -186z" />
<glyph unicode="&#xaa;" horiz-adv-x="2089" d="M197 610q0 137 52 260.5t144 214.5t215.5 143t261.5 52q185 0 344 -94l189 188l-332 -8v315h871v-870h-316l10 334l-188 -189q96 -157 96 -346q0 -150 -61 -280.5t-170.5 -224t-247.5 -134.5v-180h358v-317h-358v-226h-389v226h-359v317h359v180q-140 41 -248 133.5 t-169.5 224t-61.5 281.5zM541 610q0 -90 44 -165.5t119.5 -119.5t165.5 -44q92 0 166.5 44t119 119.5t44.5 165.5q0 69 -24.5 128t-71.5 106t-106 71.5t-128 24.5q-90 0 -165.5 -44.5t-119.5 -119t-44 -166.5z" />
<glyph unicode="&#xab;" horiz-adv-x="676" d="M106 608l50 228q60 -21 120 -21q76 0 76 37q-1 28 -53.5 74.5t-83 86.5t-31.5 115q0 77 43.5 139.5t133.5 98t223 35.5q86 0 143 -8l-53 -209q-62 12 -94 12q-78 0 -78 -39q1 -22 53.5 -71t85 -95t33.5 -117q0 -51 -24.5 -100t-74 -90t-130 -65.5t-185.5 -24.5 q-82 0 -154 14z" />
<glyph unicode="&#xac;" horiz-adv-x="598" d="M111 612l141 770h293q-10 -59 -47 -155h2q59 93 120.5 133.5t159.5 40.5l-65 -271q-14 7 -37 7q-70 0 -135.5 -92t-104.5 -306l-22 -127h-305z" />
<glyph unicode="&#xad;" d="M154 428l63 328h811l-63 -328h-811z" />
<glyph unicode="&#xae;" horiz-adv-x="549" d="M-322 -475l84 295q42 -10 78 -10q66 0 109 43.5t63 146.5l195 999q27 136 73.5 233.5t115.5 161.5t159 94t207 30q63 0 123 -11l-78 -303q-38 10 -72 10q-59 0 -97 -41t-58 -143l-199 -1030q-46 -241 -188.5 -367.5t-358.5 -126.5q-65 0 -156 19z" />
<glyph unicode="&#xaf;" horiz-adv-x="1966" d="M160 592l1573 717l-279 -1434z" />
<glyph unicode="&#xb0;" horiz-adv-x="829" d="M197 1128q0 43 8 80q20 99 85 172t155.5 112.5t177.5 39.5q150 0 220 -65.5t70 -174.5q0 -24 -8 -78q-14 -78 -56 -141t-102.5 -105t-129 -62.5t-138.5 -20.5q-133 0 -207.5 64.5t-74.5 178.5zM469 1210q0 -51 17.5 -73.5t52.5 -22.5q40 0 67 28.5t35 74.5q0 90 -61 90 q-42 0 -72 -27t-39 -70z" />
<glyph unicode="&#xb1;" horiz-adv-x="1331" d="M31 -213l61 311h1010l-62 -311h-1009zM156 492l59 307h340l66 327h352l-64 -327h340l-59 -307h-340l-66 -332h-352l64 332h-340z" />
<glyph unicode="&#xb4;" horiz-adv-x="946" d="M143 856q0 112 34.5 209.5t104 173.5t173.5 119t239 43q25 0 51 -2l68 344h305l-215 -1131h-295q9 43 49 146h-2q-117 -166 -297 -166q-215 0 -215 264zM457 897q0 -30 8 -44.5t27 -14.5q31 0 73.5 47.5t79 119t49.5 130.5l8 36q-33 9 -59 9q-81 0 -133.5 -92t-52.5 -191 z" />
<glyph unicode="&#xb5;" horiz-adv-x="1194" d="M-86 -516l293 1534h364l-112 -590q-8 -36 -8 -68q0 -67 53 -67q36 0 76.5 37t80 99.5t69 136t42.5 141.5l59 311h365l-195 -1018h-342q12 72 58 188h-2q-38 -64 -82 -109t-91.5 -69t-95.5 -24q-41 0 -69 16h-2q-2 -15 -31 -174l-65 -344h-365z" />
<glyph unicode="&#xb6;" horiz-adv-x="1389" d="M184 836q0 53 13 112q21 104 74.5 182.5t137 136t183 86.5t203.5 29h692l-60 -303h-124l-248 -1276h-322l248 1276h-94l-248 -1276h-322l140 715q-142 36 -207.5 115.5t-65.5 202.5z" />
<glyph unicode="&#xb8;" horiz-adv-x="1827" d="M57 360q0 157 48.5 297.5t139 250t211 170.5t263.5 61q182 0 265 -82.5t83 -212.5q0 -71 -44.5 -144.5t-129.5 -135.5t-201.5 -101t-261.5 -45q-2 -17 -2 -29q0 -59 47 -91t160 -32q142 0 267 29t219 79t146 112t52 128q0 70 -21.5 93.5t-85.5 23.5h-63l53 287h641 l-57 -287h-150q31 -23 31 -92q0 -127 -78 -248t-221.5 -216.5t-343.5 -152.5t-432 -57q-179 0 -297.5 39t-178 126t-59.5 230zM479 688q107 10 167.5 43t60.5 76q0 16 -12.5 27.5t-32.5 11.5q-51 0 -100 -37.5t-83 -120.5z" />
<glyph unicode="&#xba;" horiz-adv-x="2048" d="M0 686q0 276 137.5 512.5t374 374t512.5 137.5t512.5 -137.5t374 -374t137.5 -512.5t-137.5 -512.5t-374 -374t-512.5 -137.5t-512.5 137.5t-374 374t-137.5 512.5z" />
<glyph unicode="&#xbb;" horiz-adv-x="647" d="M162 1165l43 217h102l43 217l314 54l-52 -271h156l-41 -217h-156l-49 -268q-4 -24 -4 -29q0 -41 53 -41q13 0 29 1.5t35.5 5t26.5 4.5l-33 -220q-99 -24 -197 -24q-118 0 -173.5 44.5t-55.5 139.5q0 55 10 101l55 286h-106z" />
<glyph unicode="&#xbf;" horiz-adv-x="934" d="M129 874q0 164 74 283.5t195.5 181.5t258.5 62q98 0 169 -21.5t112.5 -59t61.5 -90t20 -116.5q0 -115 -42.5 -211.5t-115.5 -164.5t-169.5 -106t-200.5 -38q-193 0 -278 73t-85 207zM446 915q0 -33 19.5 -54t60.5 -21q58 0 97.5 37t57 92t17.5 108q0 42 -19.5 61 t-64.5 19q-55 0 -93 -38t-56.5 -95.5t-18.5 -108.5z" />
<glyph unicode="&#xc0;" horiz-adv-x="2759" d="M57 393q230 57 356.5 158.5t246 257.5t217.5 226.5t278 70.5q113 0 189.5 -38t113.5 -98.5t37 -131.5q0 -65 -33 -115q181 53 426 53q130 0 241.5 -20t206.5 -61t177.5 -104.5t152.5 -148.5l-235 -264q-48 85 -123.5 145.5t-180.5 94t-233 33.5q-67 0 -139 -10t-133 -23 q74 -27 124 -105.5t50 -179.5q0 -108 -52 -194t-150.5 -132.5t-231.5 -46.5q-122 0 -220.5 47t-240 146t-242.5 148t-227 49q-132 0 -248 -68zM872 274q74 -14 128 -44t120 -78.5t111 -69.5t106 -21q50 0 82.5 32.5t32.5 78.5q0 55 -28 105.5t-78 84.5q-158 -28 -256.5 -46 t-217.5 -42z" />
<glyph unicode="&#xc1;" horiz-adv-x="1200" d="M14 0l269 1382q155 11 452 11q473 0 473 -336q0 -110 -36 -201t-110 -164t-192 -127q214 -317 356 -481.5t247.5 -223.5t224.5 -59q110 0 220 35.5t175 91.5l135 -276q-115 -92 -254.5 -138t-294.5 -46q-166 0 -305 48.5t-275 165.5t-278 312.5t-321 509.5h-15l-98 -504 h-373zM539 778q28 -4 59 -4q93 0 151 62t58 143q0 100 -135 100q-54 0 -78 -4z" />
<glyph unicode="&#xc2;" horiz-adv-x="1219" d="M14 0l267 1382q158 11 481 11q473 0 473 -338q0 -193 -83 -306.5t-234 -179.5l182 -569h-428l-115 485h-76l-94 -485h-373zM539 778q36 -4 84 -4q88 0 149.5 59t61.5 146q0 100 -144 100q-72 0 -96 -4z" />
<glyph unicode="&#xc3;" horiz-adv-x="2615" d="M68 614l288 138q24 -68 51 -116t64.5 -77t87.5 -29q83 0 123 57.5t106.5 197t141.5 210t213 70.5q126 0 205 -67.5t108 -184.5q103 123 256 193.5t330 70.5q132 0 238 -41.5t181 -114t113.5 -163.5t38.5 -191q0 -109 -32 -200t-92.5 -160t-144.5 -113t-190 -63l-100 315 q100 19 150.5 67t50.5 142q0 44 -14 83t-43 69.5t-69 47.5t-93 17q-98 0 -176 -43.5t-164 -130.5q34 -3 67 -24t61 -57.5t45 -85t17 -105.5q0 -93 -47.5 -168.5t-135 -128t-213 -81t-273.5 -28.5q-282 0 -523.5 86t-405 244t-220.5 364z" />
<glyph unicode="&#xc4;" horiz-adv-x="614" d="M31 182q0 99 71 168.5t164 69.5q61 0 110.5 -30t79 -80.5t29.5 -102.5q0 -66 -32 -120.5t-86 -86t-115 -31.5t-111 30t-80 80t-30 103zM135 733q0 67 33 121t87 85.5t116 31.5q61 0 110.5 -30t79 -80.5t29.5 -102.5q0 -66 -32.5 -120.5t-86.5 -86t-115 -31.5t-111 30 t-80 80t-30 103zM240 1284q0 99 71 168.5t164 69.5q61 0 110.5 -30t79 -80.5t29.5 -102.5q0 -66 -32 -120.5t-86 -86t-115 -31.5t-111 30t-80 80t-30 103z" />
<glyph unicode="&#xc5;" horiz-adv-x="2808" d="M119 459q0 303 116 583.5t321 497t468.5 338t552.5 121.5q232 0 407 -60.5t292 -171t174 -257.5t57 -318q0 -132 -35.5 -277.5t-111.5 -290.5t-189 -270q116 -55 192 -55q80 0 134 18t112 52l49 -297q-150 -101 -381 -101q-147 0 -399 150q-271 -150 -600 -150 q-232 0 -347.5 93t-115.5 260q0 153 78.5 266t236.5 223q-96 163 -96 291q0 123 66 226t184 162.5t260 59.5q126 0 215 -42.5t136 -118.5t47 -174q0 -118 -67.5 -220t-258.5 -227q111 -114 266 -231q119 119 192.5 288.5t73.5 339.5q0 152 -69.5 270t-206 184.5t-328.5 66.5 q-232 0 -429 -109.5t-337 -288.5t-215.5 -388.5t-75.5 -401.5q0 -157 48.5 -287t143 -223.5t228 -142t301.5 -48.5q224 0 383 51l56 -331q-195 -60 -492 -60q-325 0 -559.5 128.5t-355.5 357t-121 514.5zM1208 393q0 -45 38.5 -75.5t96.5 -30.5q111 0 228 47 q-148 121 -252 233q-111 -89 -111 -174zM1384 1120q0 -45 41 -112q78 55 113 92t35 84q0 29 -20 48t-52 19q-51 0 -84 -39.5t-33 -91.5z" />
<glyph unicode="&#xc6;" horiz-adv-x="457" d="M111 612l149 770h305l-149 -770h-305zM270 1595q0 74 58 123t137 49q50 0 90 -21t63 -56.5t23 -75.5q0 -50 -27.5 -89t-73.5 -61t-96 -22q-74 0 -124 45t-50 108z" />
<glyph unicode="&#xc7;" horiz-adv-x="1319" d="M111 504q0 221 89 403t249 302t362 163l61 250h195l-55 -225h92l55 225h195l-60 -244q73 -11 113 -22l-84 -330q-62 21 -106 29l-181 -738q96 17 160 41l-43 -329q-92 -23 -197 -35l-73 -303h-195l70 291q-62 0 -92 2l-72 -293h-195l80 325q-86 23 -151.5 63.5 t-114.5 101.5t-75.5 142.5t-26.5 180.5zM500 580q0 -120 71 -185l148 598q-106 -62 -162.5 -180.5t-56.5 -232.5zM748 315q47 -10 90 -10l186 766q-47 0 -94 -6z" />
<glyph unicode="&#xc8;" horiz-adv-x="2488" d="M-186 -532l75 389h830l86 440h-830l238 1219h2052l-323 -1659h440l-76 -389h-829l323 1658h-1274l-86 -440h830l-238 -1218h-1218z" />
<glyph unicode="&#xc9;" horiz-adv-x="2232" d="M16 0l263 1382q158 11 456 11q473 0 473 -336q0 -337 -319 -484l18 -36q54 -99 107.5 -155t128.5 -87l135 723h354q-24 -97 -63 -193h4q146 219 358 219q127 0 191.5 -82.5t64.5 -248.5q0 -233 -89.5 -403t-256 -264.5t-397.5 -108.5l-78 -414h-367l80 430 q-119 17 -206.5 69.5t-158.5 146t-145 234.5l-53 101h-31l-96 -504h-373zM539 778q28 -4 59 -4q93 0 151 62t58 143q0 100 -135 100q-54 0 -78 -4zM1505 256q151 22 227 125t76 260q0 43 -8.5 61.5t-30.5 18.5q-37 0 -91 -64.5t-98.5 -156.5t-61.5 -178z" />
<glyph unicode="&#xca;" horiz-adv-x="1350" d="M80 502q0 186 63.5 350t185 289t289.5 194.5t373 69.5q223 0 424 -53l-110 -359q-171 68 -347 68q-151 0 -258.5 -72t-161 -187t-53.5 -245q0 -108 61 -170.5t193 -62.5q62 0 103 10l41 219h-203l61 311h574l-152 -796q-102 -44 -231.5 -68.5t-259.5 -24.5 q-154 0 -267.5 37.5t-186 108.5t-105.5 167t-33 214z" />
<glyph unicode="&#xcb;" horiz-adv-x="3410" d="M-186 -532l75 389h1751l86 440h-1751l238 1219h2974l-324 -1659h440l-75 -389h-830l324 1658h-2196l-86 -440h1751l-237 -1218h-2140z" />
<glyph unicode="&#xcc;" horiz-adv-x="2490" d="M51 842q0 190 42 364.5t121.5 319t186.5 248.5l252 -265q-105 -112 -167 -276.5t-62 -358.5q0 -196 78.5 -380.5t216 -327.5t317 -225t373.5 -82q205 0 361 105t240.5 286.5t84.5 400.5q0 203 -59.5 348.5t-167.5 220t-246 74.5q-204 0 -236 -170q73 76 195 76 q178 0 277.5 -95.5t99.5 -232.5q0 -135 -50 -220.5t-148 -183.5t-147.5 -179.5t-49.5 -210.5q0 -38 6 -82l-266 -33q-70 162 -176 256.5t-271.5 201t-238 191t-72.5 228.5q0 98 39 185t122.5 139.5t208.5 52.5q56 0 110 -22.5t83 -59.5q0 101 35 188t103.5 149.5t169 97 t231.5 34.5q220 0 404.5 -120t291 -327.5t106.5 -451.5q0 -225 -70.5 -435t-207.5 -375.5t-337 -260.5t-445 -95q-283 0 -529.5 103.5t-428.5 287t-281 421t-99 491.5zM891 817q0 -68 38 -104.5t141 -98.5t178 -133.5t126 -191.5q3 97 36 159t96 133t90.5 117.5t27.5 120.5 q0 44 -32.5 72.5t-82.5 28.5q-123 0 -123 -179l-208 -4q-31 94 -75.5 139.5t-115.5 45.5q-24 0 -47 -13.5t-36 -38t-13 -53.5z" />
<glyph unicode="&#xcd;" horiz-adv-x="1597" d="M72 647q0 118 37 212t104.5 161.5t160 103t204.5 35.5q155 0 246.5 -66t129.5 -169q40 19 78.5 63t38.5 90q0 74 -47 124t-127 50q-59 0 -102 -20.5t-66 -50.5l-219 231q54 58 161.5 97.5t241.5 39.5q136 0 252.5 -61t186 -171t69.5 -249q0 -213 -194 -342 q73 -8 144.5 -50.5t116 -115.5t44.5 -164q0 -101 -45 -183t-144 -130.5t-253 -48.5q-49 0 -87 6t-96.5 21t-85 21.5t-63.5 6.5q-23 0 -42.5 -18.5t-19.5 -42.5q0 -57 55.5 -96.5t133.5 -39.5q38 0 83 22.5t85 57.5l221 -227q-39 -43 -90 -78.5t-119 -55.5t-152 -20 q-167 0 -321 102.5t-271 267t-183 348.5t-66 339zM412 621q0 -85 20 -179q2 45 45 112t108 130.5t132 99.5q-31 70 -125 70q-49 0 -91.5 -33.5t-65.5 -87.5t-23 -112zM682 348q31 17 90 17q48 0 131.5 -16.5t134.5 -16.5q57 0 88 26t31 68q0 46 -41.5 88.5t-118.5 52.5 q-172 -81 -315 -219z" />
<glyph unicode="&#xce;" horiz-adv-x="2933" d="M61 604q247 26 400.5 133t314.5 297t273 275.5t299 85.5q184 0 319.5 -72t206 -197t70.5 -284q0 -127 -93 -242q103 -10 174 -10q210 0 325.5 69.5t115.5 225.5q0 208 -225 297l165 282q101 -40 185 -104.5t139 -142t84 -168.5t29 -187q0 -142 -51.5 -254t-145.5 -189 t-217.5 -115t-261.5 -38q-24 0 -82 4q35 -27 67.5 -76.5t53 -115t20.5 -139.5q0 -138 -62 -249t-183 -173t-287 -62q-227 0 -387.5 86t-381 273t-402 302.5t-443.5 172.5zM487 436q174 -35 310 -125.5t311 -243t287 -221.5t245 -69q98 0 153.5 46.5t55.5 131.5 q0 107 -64.5 186t-192.5 122.5t-308 43.5l-12 314q14 -3 41 -3q114 0 186 71t72 175q0 97 -55.5 158t-149.5 61q-108 0 -179.5 -66.5t-189 -221.5t-229 -244t-281.5 -115z" />
<glyph unicode="&#xcf;" horiz-adv-x="2052" d="M-4 922q0 109 38 201t109.5 160.5t172 106t225.5 37.5q148 0 278.5 -77t214.5 -228q22 88 76.5 156.5t142.5 108.5t203 40q133 0 244 -38t189 -109t118.5 -166t40.5 -207q0 -143 -56 -253.5t-177.5 -285t-182.5 -313t-61 -315.5q0 -84 14 -164l-317 -12q-76 200 -236 324 t-458 306.5t-438 338.5t-140 389zM356 946q0 -138 99.5 -246t325.5 -252.5t344.5 -231t199.5 -214.5q0 138 46 244.5t138.5 241.5t133 213.5t40.5 183.5q0 111 -59 178t-166 67q-70 0 -118 -31t-72.5 -90.5t-24.5 -142.5q0 -28 8 -98l-327 -12q-29 101 -77.5 184t-127 136.5 t-182.5 53.5q-50 0 -91.5 -24t-65.5 -65.5t-24 -94.5z" />
<glyph unicode="&#xd1;" horiz-adv-x="1343" d="M33 549l55 287h107l102 542q69 4 221.5 8.5t249.5 4.5q134 0 236.5 -27t178.5 -86.5t117 -154t41 -228.5q0 -182 -55 -344t-165 -289t-271.5 -199.5t-366.5 -72.5q-245 0 -448 12l104 547h-106zM469 326q28 -7 70 -7q111 0 191.5 57.5t126 143t65.5 175.5t20 165 q0 107 -51 158t-170 51q-82 0 -111 -4l-43 -229h183l-56 -287h-182z" />
<glyph unicode="&#xd2;" horiz-adv-x="2048" d="M129 963q0 122 86 208t209 86q81 0 148.5 -39.5t107 -106t39.5 -148.5q0 -123 -86 -209t-209 -86t-209 86t-86 209zM729 -90q0 123 86 209t209 86q81 0 148.5 -39.5t107 -107t39.5 -148.5q0 -123 -86 -209t-209 -86t-209 86t-86 209zM729 592q0 123 86 209t209 86 q81 0 148.5 -39.5t107 -107t39.5 -148.5q0 -123 -86 -209t-209 -86t-209 86t-86 209zM729 1274q0 123 86 209t209 86q81 0 148.5 -39.5t107 -107t39.5 -148.5q0 -123 -86 -209t-209 -86t-209 86t-86 209zM1329 963q0 122 86 208t209 86q81 0 148.5 -39.5t107 -106 t39.5 -148.5q0 -123 -86 -209t-209 -86t-209 86t-86 209z" />
<glyph unicode="&#xd3;" horiz-adv-x="2048" d="M0 -338v2048h2048v-2048h-2048z" />
<glyph unicode="&#xd4;" horiz-adv-x="1843" d="M0 -328v1844h1843v-1844h-1843z" />
<glyph unicode="&#xd5;" horiz-adv-x="2154" d="M115 1319q152 82 352 82q81 0 158.5 -11t151 -32.5t136.5 -48.5q62 50 162 108t223 117l191 -250q-159 -43 -299 -141q130 -97 211 -193q24 63 86 97t141 34q126 0 198.5 -65.5t102 -181.5t29.5 -281q0 -100 4 -178.5t15.5 -133t35 -108.5t68.5 -133l-246 -197 q-40 83 -90.5 110.5t-128.5 27.5q-36 0 -60.5 -0.5t-54.5 -1.5q-201 0 -362 76t-249.5 199t-88.5 257q0 81 32 148.5t93.5 108t144.5 40.5q38 0 57 -8q-98 100 -202 174q-36 -48 -75.5 -113.5t-75 -139.5t-66.5 -163l-289 121q58 128 125 239.5t121 184.5q-37 13 -88.5 21 t-92.5 8q-138 0 -262 -70zM1163 401q0 -40 33.5 -86t104 -78t167.5 -32q15 1 27 1.5t35 0.5q29 0 47 -6q-104 154 -195 266q-45 29 -106 29q-113 0 -113 -95z" />
<glyph unicode="&#xd6;" horiz-adv-x="1264" d="M35 408l47 251h96l78 406q175 3 289 4.5t176 1.5q245 0 375.5 -92t130.5 -305q0 -233 -103 -386.5t-264.5 -224.5t-335.5 -71q-157 0 -279 3t-192 7l78 406h-96zM481 315q26 -4 74 -4q89 0 148.5 50t88.5 120.5t29 134.5q0 69 -38.5 107.5t-108.5 38.5q-65 0 -107 -4 l-18 -99h139l-47 -251h-141z" />
<glyph unicode="&#xd8;" horiz-adv-x="457" d="M111 612l219 1131h307l-221 -1131h-305z" />
<glyph unicode="&#xd9;" horiz-adv-x="2040" d="M166 395q0 101 64.5 204.5t160.5 156.5q-108 78 -108 229q0 130 70.5 249.5t214 195t345.5 75.5q82 0 142.5 -4t109.5 -14l-84 -326q-90 29 -200 29q-90 0 -138.5 -36t-48.5 -93q0 -117 316 -117l-56 -282q-122 0 -201 -24.5t-115 -70t-36 -108.5q0 -39 32.5 -68t99 -45 t155.5 -16q139 0 259.5 41.5t189.5 110.5t69 147q0 41 -28 71.5t-99 30.5h-51l55 287h678l-55 -287h-142q29 -27 29 -86q0 -181 -132.5 -335t-354 -243.5t-471.5 -89.5q-190 0 -320 32t-207 89.5t-110 132t-33 164.5z" />
<glyph unicode="&#xda;" horiz-adv-x="2048" d="M729 -90q0 123 86 209t209 86q81 0 148.5 -39.5t107 -107t39.5 -148.5q0 -123 -86 -209t-209 -86t-209 86t-86 209zM729 592q0 123 86 209t209 86q81 0 148.5 -39.5t107 -107t39.5 -148.5q0 -123 -86 -209t-209 -86t-209 86t-86 209zM729 1274q0 123 86 209t209 86 q81 0 148.5 -39.5t107 -107t39.5 -148.5q0 -123 -86 -209t-209 -86t-209 86t-86 209z" />
<glyph unicode="&#xdb;" horiz-adv-x="2048" d="M129 221q0 123 86 209t209 86q81 0 148.5 -39.5t107 -107t39.5 -148.5q0 -123 -86 -209t-209 -86t-209 86t-86 209zM729 -90q0 123 86 209t209 86q81 0 148.5 -39.5t107 -107t39.5 -148.5q0 -123 -86 -209t-209 -86t-209 86t-86 209zM729 592q0 123 86 209t209 86 q81 0 148.5 -39.5t107 -107t39.5 -148.5q0 -123 -86 -209t-209 -86t-209 86t-86 209zM729 1274q0 123 86 209t209 86q81 0 148.5 -39.5t107 -107t39.5 -148.5q0 -123 -86 -209t-209 -86t-209 86t-86 209zM1329 221q0 123 86 209t209 86q81 0 148.5 -39.5t107 -107 t39.5 -148.5q0 -123 -86 -209t-209 -86t-209 86t-86 209z" />
<glyph unicode="&#xdc;" horiz-adv-x="1161" d="M57 375q0 187 83 317t211 193t265 63q119 0 183 -26q0 113 -37 176l-121 -103l-215 142l109 92q-15 2 -43 2q-74 0 -166 -19l55 291q72 10 145 10q93 0 162.5 -13.5t122.5 -37.5l125 107l215 -142l-135 -112q125 -162 125 -465q0 -189 -49 -349t-138 -277.5t-209 -182 t-260 -64.5q-110 0 -192 28t-134 80t-77 125.5t-25 164.5zM426 414q0 -105 113 -105q85 0 139.5 85.5t54.5 185.5q0 37 -35.5 54t-79.5 17q-98 0 -145 -74.5t-47 -162.5z" />
<glyph unicode="&#xdf;" horiz-adv-x="1331" d="M-322 -475l84 295q42 -10 78 -10q44 0 77.5 18.5t57.5 62t37 111.5l140 725q40 205 128 355.5t214.5 248t276 143.5t312.5 46q94 0 174 -11l-63 -307q-44 10 -119 10q-141 0 -255.5 -56t-192 -164.5t-105.5 -252.5l-143 -739q-31 -159 -105.5 -270.5t-186.5 -167.5 t-253 -56q-65 0 -156 19zM547 -6l63 301q30 -11 71 -20t73 -9q92 0 92 49q0 39 -62 99.5t-97.5 113t-35.5 154.5q0 104 54 185.5t162.5 128t269.5 46.5q82 0 159 -12l-57 -276q-59 16 -113 16q-94 0 -94 -51q0 -27 63.5 -93t101.5 -126t38 -154q0 -92 -54 -177 t-168.5 -139.5t-281.5 -54.5q-87 0 -184 19z" />
<glyph unicode="&#xe0;" horiz-adv-x="889" d="M23 0l94 477l-92 -22l12 284l137 33l119 610h377l-101 -512l170 41l-14 -286l-213 -52l-45 -233h377l-66 -340h-755z" />
<glyph unicode="&#xe1;" horiz-adv-x="1147" d="M45 305q0 151 42 283t128 235.5t213.5 161t290.5 57.5q29 0 61 -4l15 76l-109 -18l12 247l144 25l24 127h367l-12 -63l92 16l-17 -250l-125 -20l-215 -1178h-354q15 83 62 193h-5q-73 -109 -163 -164.5t-195 -55.5q-84 0 -141 36.5t-86 111t-29 184.5zM424 377 q0 -41 8.5 -60.5t30.5 -19.5q38 0 91 63.5t99 159t62 176.5l8 43q-38 11 -70 11q-66 0 -118.5 -59t-81.5 -147t-29 -167z" />
<glyph unicode="&#xe2;" horiz-adv-x="823" d="M18 338l13 248l114 28l88 451h373l-69 -352l182 45l-17 -250l-215 -53l-24 -121h268l-65 -334h-641l69 356z" />
<glyph unicode="&#xe3;" horiz-adv-x="963" d="M25 -4l65 354q122 -45 236 -45q184 0 184 117q0 46 -66.5 91.5t-132 87.5t-115 111.5t-49.5 180.5q0 146 66 263.5t201 186t329 68.5q128 0 256 -20l-65 -334q-111 37 -195 37q-180 0 -180 -113q0 -46 64 -92.5t132 -92t117.5 -118.5t49.5 -186q0 -104 -44.5 -200 t-128 -168t-198 -112.5t-246.5 -40.5q-146 0 -280 25zM387 1608l102 221l250 -117l258 117l86 -219l-352 -166z" />
<glyph unicode="&#xe4;" horiz-adv-x="633" d="M23 469l38 287l136 32l137 707h368l-118 -612l121 28l-39 -286l-138 -33l-114 -592h-371l98 498z" />
<glyph unicode="&#xe5;" horiz-adv-x="838" d="M23 -6l73 319q74 -32 174 -32q40 0 60 18t20 41q0 30 -41 57.5t-90 60.5t-81 80.5t-32 129.5q0 77 27.5 152.5t85.5 135.5t154 97t229 37q118 0 217 -15l-69 -307q-78 25 -152 25q-80 0 -80 -56q0 -26 36 -50t90.5 -58.5t90 -90.5t35.5 -139q0 -120 -65 -218.5 t-181.5 -154t-269.5 -55.5q-137 0 -231 23zM254 1296l102 222l250 -117l258 117l86 -220l-352 -165z" />
<glyph unicode="&#xe6;" horiz-adv-x="1430" d="M111 612l141 770h295q-10 -65 -47 -145h4q63 81 133 123.5t166 42.5q79 0 128.5 -37.5t49.5 -114.5v-24h2q60 87 131.5 131.5t173.5 44.5q69 0 114 -23t65 -63.5t20 -93.5q0 -32 -6 -70l-107 -541h-305l94 469q4 17 4 41q0 35 -24 35q-26 0 -69.5 -46.5t-81.5 -119 t-52 -149.5l-45 -230h-305l94 469q4 17 4 41q0 35 -24 35q-26 0 -69.5 -46.5t-81 -118t-52.5 -150.5l-45 -230h-305z" />
<glyph unicode="&#xe7;" horiz-adv-x="760" d="M2 -6l64 301q78 -29 143 -29q92 0 92 49q0 39 -62 99.5t-97.5 113t-35.5 154.5q0 104 54 185.5t162.5 128t269.5 46.5q93 0 170 -12l-68 -276q-59 16 -112 16q-95 0 -95 -51q0 -27 63.5 -93t101.5 -126t38 -154q0 -92 -54 -177t-167.5 -139.5t-282.5 -54.5q-87 0 -184 19 zM207 1296l102 222l250 -117l258 117l86 -220l-352 -165z" />
<glyph unicode="&#xe8;" horiz-adv-x="1106" d="M117 1065h391l45 -186q32 -129 43 -199h2q1 2 22.5 41.5t51 86t49.5 77.5l117 180h397l-518 -750l-62 -315h-368l59 307zM479 1333l453 223l133 -256l-473 -182z" />
<glyph unicode="&#xe9;" horiz-adv-x="1198" d="M168 1382h393l72 -299q27 -119 39 -211h4q24 46 145 242l166 268h408l-602 -905l-91 -477h-372l90 475zM610 1661l453 223l133 -256l-473 -182z" />
<glyph unicode="&#xea;" horiz-adv-x="1137" d="M-125 -477l57 313q59 -20 121 -20q96 0 142 34q61 46 61 170q0 157 -21.5 317.5t-60 331t-88.5 349.5h408q37 -131 60.5 -303t23.5 -322v-26h4q154 320 286 694l359 -92q-120 -274 -220.5 -476t-188.5 -346t-167 -245.5t-172 -194.5q-110 -110 -216.5 -155.5 t-223.5 -45.5q-87 0 -164 17zM481 1333l453 223l133 -256l-473 -182z" />
<glyph unicode="&#xeb;" horiz-adv-x="1110" d="M16 0l269 1382h377l-37 -184h51q137 0 242 -41.5t164 -127.5t59 -212q0 -118 -46 -224t-132.5 -188.5t-205.5 -129t-259 -46.5q-35 0 -60 2l-45 -231h-377zM500 549q12 -2 26 -2q66 0 117 31.5t79 83.5t28 110q0 52 -31.5 84.5t-97.5 32.5q-39 0 -56 -2z" />
<glyph unicode="&#xec;" horiz-adv-x="1137" d="M-76 -477l375 1972h373l-45 -235q-29 -151 -57.5 -243.5t-73.5 -176.5h10q72 99 162.5 151.5t193.5 52.5q250 0 250 -331q0 -151 -42.5 -284.5t-128 -235.5t-212 -160t-291.5 -58q-28 0 -61 5l-86 -457h-367zM434 279q33 -11 70 -11q66 0 118.5 58.5t81.5 147t29 167.5 q0 43 -8.5 61.5t-30.5 18.5q-38 0 -91 -63.5t-99 -159t-62 -176.5z" />
<glyph unicode="&#xed;" horiz-adv-x="1085" d="M25 0l208 1065h373l-24 -127h47q135 0 231.5 -34.5t147.5 -104.5t51 -174q0 -112 -43 -203t-118 -154t-169.5 -96t-200.5 -33q-88 0 -102 2l-27 -141h-374zM483 440q13 -2 45 -2q59 0 96.5 36.5t37.5 86.5q0 36 -19 58t-61 22q-39 0 -60 -2z" />
<glyph unicode="&#xee;" horiz-adv-x="1071" d="M6 0l57 301l486 664q33 43 67 77q-1 0 -55 -1t-117 -1h-227l64 342h876l-59 -315l-504 -659q-21 -29 -49 -58q20 2 225 2h201l-66 -352h-899zM465 1608l102 221l250 -117l258 117l86 -219l-352 -166z" />
<glyph unicode="&#xef;" horiz-adv-x="1004" d="M12 0l58 301l348 379q17 17 27.5 28t17.5 17q-21 -2 -121 -2h-182l65 342h799l-61 -315l-355 -371q-18 -18 -33 -29q13 2 152 2h172l-65 -352h-822zM322 1296l102 222l250 -117l258 117l86 -220l-352 -165z" />
<glyph unicode="&#xf1;" horiz-adv-x="913" d="M4 0l51 266l348 420q-28 -4 -141 -4h-115l64 336h727l-53 -268l-334 -410q24 2 160 2h102l-63 -342h-746zM258 1296l102 222l250 -117l258 117l86 -220l-352 -165z" />
<glyph unicode="&#xf2;" horiz-adv-x="1784" d="M205 0v1382h1374v-1382h-1374zM565 348h654v686h-654v-686z" />
<glyph unicode="&#xf3;" horiz-adv-x="1784" d="M205 0v1382h1374v-1382h-1374z" />
<glyph unicode="&#xf4;" horiz-adv-x="1784" d="M377 176v221l293 293l2 2l-295 295v221h221l295 -295l295 295h221v-221l-295 -295l2 -2l293 -293v-221h-221l-295 295l-295 -295h-221z" />
<glyph unicode="&#xf5;" horiz-adv-x="1784" d="M143 692q0 152 58 290t162 241t241 161t289 58t289 -58t240 -160t161.5 -241t58.5 -291q0 -151 -58 -288.5t-161.5 -241t-240.5 -161.5t-289 -58q-203 0 -375.5 101t-273.5 273t-101 375zM526 692q0 -100 49.5 -184t133.5 -133t184 -49q76 0 142.5 28t117.5 79t79 117 t28 142t-28 142.5t-79 117.5t-117.5 79t-142.5 28q-101 0 -185 -49t-133 -133t-49 -185z" />
<glyph unicode="&#xf6;" horiz-adv-x="1784" d="M143 692q0 152 58 290t162 241t241 161t289 58t289 -58t240 -160t161.5 -241t58.5 -291q0 -151 -58 -288.5t-161.5 -241t-240.5 -161.5t-289 -58q-203 0 -375.5 101t-273.5 273t-101 375z" />
<glyph unicode="&#xf7;" horiz-adv-x="1372" d="M133 373l60 311h1075l-62 -311h-1073zM395 109q0 63 31.5 115.5t85 83t111.5 30.5q90 0 151.5 -61.5t61.5 -145.5q0 -63 -31 -115.5t-83.5 -83t-111.5 -30.5q-88 0 -151.5 62.5t-63.5 144.5zM553 928q0 65 32 117t84.5 83t112.5 31q57 0 106.5 -29t78 -76.5t28.5 -101.5 q0 -97 -68 -164t-159 -67q-87 0 -151 63t-64 144z" />
<glyph unicode="&#xf8;" horiz-adv-x="948" d="M113 612l141 770h295q-11 -72 -47 -145h4q125 166 303 166q103 0 151 -49t48 -131q0 -35 -7 -70l-104 -541h-305l94 469q4 17 4 41q0 35 -24 35q-26 0 -69.5 -46.5t-81 -118t-52.5 -150.5l-45 -230h-305z" />
<glyph unicode="&#xf9;" horiz-adv-x="2048" d="M111 319v1379h1826v-1379h-327v1051h-1172v-1051h-327zM408 61l229 230l223 -248v754h328v-756l223 250l229 -230l-616 -616z" />
<glyph unicode="&#xfa;" horiz-adv-x="1784" d="M391 412l281 280l-2 2l-279 279l221 221l281 -281l281 281l221 -221l-279 -279l-2 -2l281 -280l-219 -222l-283 281l-281 -281z" />
<glyph unicode="&#xfb;" horiz-adv-x="2048" d="M111 -555v1378h327v-1050h1172v1050h327v-1378h-1826zM408 1081l616 617l616 -617l-229 -229l-223 250v-756h-328v754l-223 -248z" />
<glyph unicode="&#xfc;" horiz-adv-x="1901" d="M35 385q0 182 57.5 341.5t158 275.5t226.5 178.5t260 62.5q125 0 210.5 -38.5t127 -104.5t41.5 -152q0 -113 -84.5 -217.5t-244.5 -177.5t-371 -98v-19q0 -78 38.5 -112.5t137.5 -34.5q206 0 410.5 95.5t335 268.5t130.5 387q0 162 -71.5 257.5t-202.5 95.5v297 q144 0 262 -46.5t197.5 -130t120.5 -195.5t41 -243q0 -248 -112.5 -454.5t-297 -350.5t-406.5 -221.5t-436 -77.5q-187 0 -305 46.5t-170.5 138t-52.5 229.5zM469 748q85 11 150 34.5t97 52.5t32 58q0 21 -17.5 35t-54.5 14q-71 0 -122.5 -53.5t-84.5 -140.5z" />
<glyph unicode="&#xff;" horiz-adv-x="1358" d="M-2 47l211 1081l1182 -536z" />
<glyph unicode="&#x152;" horiz-adv-x="3717" d="M150 700q0 114 46.5 215t108.5 158l346 -80q-52 -46 -88.5 -133.5t-36.5 -171.5q0 -122 49 -193t134 -71q71 0 145.5 106.5t172 248t243 234.5t368.5 93q198 0 369 -109q-148 -15 -266 -113.5t-264 -276.5t-243.5 -263.5t-217.5 -85.5q49 -14 123 -14q164 0 265.5 89.5 t353.5 357.5t476 399t535 131q160 0 296 -51t236.5 -143.5t153.5 -213t53 -256.5q0 -194 -84 -334.5t-236.5 -212t-357.5 -71.5q-60 0 -123 14l17 317q54 -10 127 -10q126 0 205 76t79 217q0 100 -48.5 178.5t-134.5 121t-195 42.5q-67 0 -123 -11t-100.5 -33t-88.5 -58 q52 -40 86.5 -117t34.5 -168q0 -163 -70.5 -285.5t-204.5 -203.5t-328.5 -121.5t-444.5 -40.5q-299 0 -544.5 55t-420.5 154.5t-272 228.5q-73 98 -102 200.5t-29 204.5z" />
<glyph unicode="&#x153;" horiz-adv-x="3791" d="M72 236q0 124 7.5 259.5t29.5 417.5h765l480 517h1464v-226q0 -25 -4 -53h600q89 0 156 -35t104 -98t37 -144q0 -80 -36 -143t-103.5 -98t-157.5 -35h-516q4 -16 4 -51q0 -96 -49 -164q20 -26 34.5 -73t14.5 -91q0 -77 -34.5 -138.5t-87 -100.5t-99.5 -48q4 -16 4 -41 q0 -80 -38 -142.5t-106 -98t-153 -35.5h-2284q-32 373 -32 621zM360 236q0 -119 7 -229.5t18 -166.5h1403q-4 30 -4 51q0 42 13.5 88t35.5 76q-49 73 -49 164q0 95 49 164q-24 34 -36.5 77t-12.5 87q0 116 76 196t161 80h1393q21 0 36 14t15 37t-15 37.5t-36 14.5h-741 q-76 -49 -215 -49h-611l-159 -248l-226 145l215 328h772q45 0 74 29t29 73h-1057l-483 -528h-627q-25 -202 -25 -440zM2030 -109q0 -21 15 -36t36 -15h307q21 0 36 14t15 37t-15 37.5t-36 14.5h-307q-21 0 -36 -15t-15 -37zM2030 219q0 -21 15 -36t36 -15h524q21 0 36 14 t15 37q0 22 -14 36.5t-37 14.5h-524q-22 0 -36.5 -15t-14.5 -36zM2030 547q0 -21 15 -36t36 -15h524q21 0 36 14t15 37q0 22 -15 36.5t-36 14.5h-524q-21 0 -36 -15t-15 -36z" />
<glyph unicode="&#x178;" horiz-adv-x="4098" d="M102 684q0 89 50 256l364 -86q-19 -42 -30 -96t-11 -84q0 -84 67 -144.5t187 -60.5q156 0 294 50t535.5 212t683 240t580.5 78q113 0 246 -16.5t255 -44.5t216 -62q169 -61 280.5 -144.5t167.5 -183.5t56 -205q0 -90 -38 -173.5t-100 -147.5t-139 -105l-225 260 q65 37 101 92.5t36 98.5q0 44 -22.5 81.5t-64.5 60t-101 22.5q-103 0 -312.5 -99t-500 -238.5t-596 -229t-631.5 -89.5q-213 0 -419.5 36t-380.5 104.5t-288 154.5q-130 100 -195 216.5t-65 246.5zM1079 242q56 -13 149 -19t146 -6q212 0 436 68.5t535 205.5t439.5 188.5 t248.5 57.5q-111 19 -227 19q-168 0 -377.5 -67t-518 -194.5t-494.5 -190t-337 -62.5z" />
<glyph unicode="&#x2c6;" horiz-adv-x="1114" d="M111 680q0 154 61 285.5t169 224t256.5 142.5t324.5 50h712l-63 -323h-701q-125 0 -213 -40.5t-131 -112.5t-43 -165q0 -54 30 -89.5t95 -35.5q59 0 92 19t33 49q0 18 -14 28.5t-62 10.5l56 283q55 6 80 6q168 0 239.5 -74.5t71.5 -183.5q0 -151 -76.5 -255t-200.5 -153 t-268 -49q-119 0 -204 27.5t-139.5 79t-79.5 122t-25 154.5z" />
<glyph unicode="&#x2dc;" horiz-adv-x="819" d="M-385 0l55 293h379q334 0 334 84q0 20 -9 28.5t-36 8.5q-47 0 -88 -13l57 293q63 13 107 13q166 0 243.5 -73t77.5 -192q0 -210 -187 -326t-562 -116h-371z" />
<glyph unicode="&#x2000;" horiz-adv-x="999" />
<glyph unicode="&#x2001;" horiz-adv-x="1999" />
<glyph unicode="&#x2002;" horiz-adv-x="999" />
<glyph unicode="&#x2003;" horiz-adv-x="1999" />
<glyph unicode="&#x2004;" horiz-adv-x="666" />
<glyph unicode="&#x2005;" horiz-adv-x="499" />
<glyph unicode="&#x2006;" horiz-adv-x="333" />
<glyph unicode="&#x2007;" horiz-adv-x="333" />
<glyph unicode="&#x2008;" horiz-adv-x="249" />
<glyph unicode="&#x2009;" horiz-adv-x="399" />
<glyph unicode="&#x200a;" horiz-adv-x="111" />
<glyph unicode="&#x2010;" d="M154 428l63 328h811l-63 -328h-811z" />
<glyph unicode="&#x2011;" d="M154 428l63 328h811l-63 -328h-811z" />
<glyph unicode="&#x2012;" d="M154 428l63 328h811l-63 -328h-811z" />
<glyph unicode="&#x2013;" horiz-adv-x="512" d="M0 428l63 328h512l-63 -328h-512z" />
<glyph unicode="&#x2014;" horiz-adv-x="1536" d="M0 428l63 328h1536l-63 -328h-1536z" />
<glyph unicode="&#x2018;" horiz-adv-x="915" d="M33 592l1009 528l-204 -1057z" />
<glyph unicode="&#x2019;" horiz-adv-x="915" d="M-70 63l205 1057l805 -528z" />
<glyph unicode="&#x201a;" horiz-adv-x="643" d="M215 592q0 57 40 97t97 40t97 -40t40 -97t-40 -97t-97 -40t-97 40t-40 97z" />
<glyph unicode="&#x201c;" horiz-adv-x="1501" d="M33 592l1589 528l-205 -1057z" />
<glyph unicode="&#x201d;" horiz-adv-x="1501" d="M-70 63l205 1057l1385 -528z" />
<glyph unicode="&#x201e;" horiz-adv-x="750" d="M233 592q0 72 50 121t120 49q48 0 86 -22.5t61 -62t23 -85.5q0 -69 -49.5 -119.5t-120.5 -50.5q-70 0 -120 50t-50 120z" />
<glyph unicode="&#x2022;" horiz-adv-x="1008" d="M41 612q0 126 62 232.5t168.5 168.5t232.5 62t232.5 -62t168.5 -168.5t62 -232.5q0 -124 -62.5 -231.5t-169 -169t-231.5 -61.5t-231.5 61.5t-169 169t-62.5 231.5zM426 612q0 -32 23.5 -54.5t54.5 -22.5t54.5 22.5t23.5 54.5t-23 55t-55 23t-55 -23t-23 -55z" />
<glyph unicode="&#x2026;" horiz-adv-x="948" d="M150 772q0 20 8 70l102 540h305l-90 -469q-2 -18 -2 -43q0 -32 21 -32q20 0 50.5 27t61 72.5t55.5 101t35 114.5l45 229h306l-144 -770h-295q14 68 49 146h-4q-119 -166 -305 -166q-101 0 -149.5 49t-48.5 131z" />
<glyph unicode="&#x202f;" horiz-adv-x="399" />
<glyph unicode="&#x2039;" horiz-adv-x="3291" d="M86 381l252 149q118 -243 395 -243q168 0 359.5 64t517.5 200t538 203t408 67q131 0 235.5 -29.5t180.5 -82.5t133.5 -126t101.5 -165l-254 -146q-115 244 -393 244q-167 0 -350.5 -63t-504.5 -198.5t-541 -204t-425 -68.5q-159 0 -285.5 49.5t-217.5 138.5t-150 211z " />
<glyph unicode="&#x203a;" horiz-adv-x="2879" d="M51 25q0 215 63 362.5t199 225t351 77.5q161 0 358 -52t480.5 -149t437.5 -141.5t278 -44.5q137 0 231 30t191 101l164 -284q-118 -79 -257 -116.5t-300 -37.5q-149 0 -321 46.5t-462 145.5t-469.5 148t-324.5 49q-162 0 -229.5 -90.5t-67.5 -269.5h-322zM72 1026 q70 48 159.5 83.5t191 53t204.5 17.5q171 0 368.5 -51t498.5 -153.5t443 -143.5t267 -41q162 0 229.5 91t67.5 269h321q0 -326 -146.5 -496t-465.5 -170q-142 0 -316.5 47.5t-451.5 142.5t-461 146t-326 51q-133 0 -227 -31t-192 -100z" />
<glyph unicode="&#x205f;" horiz-adv-x="499" />
<glyph unicode="&#x2122;" horiz-adv-x="946" d="M113 629l217 1114h305l-51 -260q-27 -128 -88 -250h4q126 170 297 170q217 0 217 -264q0 -108 -34.5 -207.5t-102.5 -174.5t-173 -119t-243 -44q-181 0 -348 35zM457 823q32 -8 57 -8q55 0 98 44.5t65.5 111.5t22.5 127q0 59 -32 59t-78.5 -48t-84 -120.5t-44.5 -132.5z " />
<glyph unicode="&#x25fc;" horiz-adv-x="1380" d="M0 0v1380h1380v-1380h-1380z" />
</font>
</defs>
</svg>
